<svg xmlns="http://www.w3.org/2000/svg" width="20" height="20" viewBox="0 0 20 20" fill="none">
  <path d="M15.75 16.9167L11.0833 12.25C10.6667 12.5833 10.1875 12.8472 9.64583 13.0417C9.10417 13.2361 8.52778 13.3333 7.91667 13.3333C6.40278 13.3333 5.12167 12.8092 4.07333 11.7608C3.02444 10.7119 2.5 9.43056 2.5 7.91667C2.5 6.40278 3.02444 5.12139 4.07333 4.0725C5.12167 3.02417 6.40278 2.5 7.91667 2.5C9.43056 2.5 10.7119 3.02417 11.7608 4.0725C12.8092 5.12139 13.3333 6.40278 13.3333 7.91667C13.3333 8.52778 13.2361 9.10417 13.0417 9.64583C12.8472 10.1875 12.5833 10.6667 12.25 11.0833L16.9375 15.7708C17.0903 15.9236 17.1633 16.1144 17.1567 16.3433C17.1494 16.5728 17.0694 16.7639 16.9167 16.9167C16.7639 17.0694 16.5694 17.1458 16.3333 17.1458C16.0972 17.1458 15.9028 17.0694 15.75 16.9167ZM7.91667 11.6667C8.95833 11.6667 9.84389 11.3022 10.5733 10.5733C11.3022 9.84389 11.6667 8.95833 11.6667 7.91667C11.6667 6.875 11.3022 5.98944 10.5733 5.26C9.84389 4.53111 8.95833 4.16667 7.91667 4.16667C6.875 4.16667 5.98944 4.53111 5.26 5.26C4.53111 5.98944 4.16667 6.875 4.16667 7.91667C4.16667 8.95833 4.53111 9.84389 5.26 10.5733C5.98944 11.3022 6.875 11.6667 7.91667 11.6667ZM7.91667 10.4167C7.68056 10.4167 7.48278 10.3367 7.32333 10.1767C7.16333 10.0172 7.08333 9.81944 7.08333 9.58333V8.75H6.22917C5.99306 8.75 5.79861 8.67 5.64583 8.51C5.49306 8.35056 5.41667 8.15278 5.41667 7.91667C5.41667 7.68056 5.49639 7.4825 5.65583 7.3225C5.81583 7.16306 6.01389 7.08333 6.25 7.08333H7.08333V6.22917C7.08333 5.99306 7.16333 5.79861 7.32333 5.64583C7.48278 5.49306 7.68056 5.41667 7.91667 5.41667C8.15278 5.41667 8.35083 5.49639 8.51083 5.65583C8.67028 5.81583 8.75 6.01389 8.75 6.25V7.08333H9.60417C9.84028 7.08333 10.0347 7.16306 10.1875 7.3225C10.3403 7.4825 10.4167 7.68056 10.4167 7.91667C10.4167 8.15278 10.3369 8.35056 10.1775 8.51C10.0175 8.67 9.81945 8.75 9.58333 8.75H8.75V9.60417C8.75 9.84028 8.67028 10.0347 8.51083 10.1875C8.35083 10.3403 8.15278 10.4167 7.91667 10.4167Z" fill="#2E2626" fill-opacity="0.6"/>
</svg>